<?xml version="1.0" encoding="utf-8"?>
<!-- Generator: Adobe Illustrator 21.1.0, SVG Export Plug-In . SVG Version: 6.00 Build 0)  -->
<svg version="1.1" id="图层_1" xmlns="http://www.w3.org/2000/svg" xmlns:xlink="http://www.w3.org/1999/xlink" x="0px" y="0px"
	 viewBox="0 0 32 26" style="enable-background:new 0 0 32 26;" xml:space="preserve">
<style type="text/css">
	.st0{fill-rule:evenodd;clip-rule:evenodd;fill:#D2B067;}
</style>
<path class="st0" d="M29,26H9.1c-1.6,0-3-1.3-3-3v-3.8c0-1.1,1.5-1.1,1.5-1.1c1,0,1.5,1.1,1.5,1.1V22c0,0.6,0.4,1,1,1H28
	c0.5,0,1-0.4,1-1V4c0-0.6-0.4-1-1-1h-6.2c0,0-1.2-0.2-1.2-1.5c0,0,0.3-1.5,1.2-1.5H29c1.6,0,3,1.3,3,3v20C32,24.7,30.7,26,29,26
	L29,26z M9.8,14.8L13,11C12.2,8.8,11,4.4,6.4,4.4C2,4.5,0.6,6.8,0.2,8C1.1,4.7,2.5,2.3,5,1.6c4.3-1.2,8.2-0.5,11.9,4.7l2.6-3.1
	c0.8,4.6,1.7,11.9,1.7,11.9S10.3,15.2,9.8,14.8L9.8,14.8z M0.2,8C0.1,8.2,0.1,8.4,0,8.6C0,8.6,0,8.4,0.2,8L0.2,8z"/>
</svg>
