<?xml version="1.0" encoding="utf-8"?>
<!-- Generator: Adobe Illustrator 21.1.0, SVG Export Plug-In . SVG Version: 6.00 Build 0)  -->
<svg version="1.1" id="layer_1" xmlns="http://www.w3.org/2000/svg" xmlns:xlink="http://www.w3.org/1999/xlink" x="0px" y="0px"
	 viewBox="0 0 16 16" style="enable-background:new 0 0 16 16;" xml:space="preserve">
<style type="text/css">
	.st0{fill-rule:evenodd;clip-rule:evenodd;fill:#39599c;}
</style>
<path class="st0" d="M14,16H2c-1.1,0-2-0.9-2-2V2c0-1.1,0.9-2,2-2h12c1.1,0,2,0.9,2,2v12C16,15.1,15.1,16,14,16L14,16z M5.7,3.9
	C5,3.9,4.6,4,4.1,4.2c-0.5,0.2-0.7,0.6-0.9,1C3.1,5.6,3,6,3,6.7V7H2l0,2h1V15h2.3V9h1.6l0.4-2H5.1c0,0-0.2-0.8,0.1-1.1
	c0.2-0.2,0.5-0.3,0.8-0.3c0.4,0,0.7,0.2,1.1,0.4l0.5-1.7C6.9,4.1,6.5,3.9,5.7,3.9L5.7,3.9z"/>
</svg>
