<?xml version="1.0" encoding="utf-8"?>
<!-- Generator: Adobe Illustrator 21.1.0, SVG Export Plug-In . SVG Version: 6.00 Build 0)  -->
<svg version="1.1" id="图层_1" xmlns="http://www.w3.org/2000/svg" xmlns:xlink="http://www.w3.org/1999/xlink" x="0px" y="0px"
	 viewBox="0 0 53 34" style="enable-background:new 0 0 53 34;" xml:space="preserve">
<style type="text/css">
	.st0{fill:#C8C8C8;}
</style>
<path class="st0" d="M14.2,13.4h-0.7V17h0.6c0.9,0,1.6-0.2,2-0.5c0.5-0.3,0.7-0.8,0.7-1.4C16.9,14,16,13.4,14.2,13.4L14.2,13.4z
	 M43.1,0L0,2.4L12,34l41-12.5L43.1,0L43.1,0z M21.4,17.2c-0.4,0.6-0.9,1.1-1.5,1.5c-0.7,0.4-1.5,0.7-2.4,0.9c-0.9,0.2-2,0.3-3.1,0.3
	h-0.8v4.1H8.2V10.5h6.2c2.3,0,4.2,0.4,5.5,1.2c1.3,0.8,2,1.9,2,3.5C22,15.9,21.8,16.6,21.4,17.2L21.4,17.2z M35.2,24
	c-0.8,0.2-1.7,0.2-2.8,0.2c-1.5,0-2.8-0.2-4-0.5c-1.2-0.3-2.1-0.8-2.9-1.4c-0.8-0.6-1.4-1.3-1.8-2.2c-0.4-0.9-0.6-1.8-0.6-2.9
	c0-1.1,0.2-2,0.7-2.9c0.4-0.9,1.1-1.6,1.9-2.2c0.8-0.6,1.8-1.1,2.9-1.4c1.1-0.3,2.4-0.5,3.7-0.5c1,0,2,0,2.8,0.2
	c0.8,0.2,0.9,0.2,1.5,0.4l0,3.6c-0.5-0.3-1.1-0.5-1.8-0.7c-0.7-0.2-1.4-0.3-2.1-0.3c-1.2,0-2.2,0.3-2.9,1c-0.8,0.6-1.1,1.6-1.1,2.8
	c0,0.6,0.1,1.2,0.4,1.6c0.2,0.5,0.6,0.9,1,1.2c0.4,0.3,0.9,0.5,1.4,0.7c0.5,0.2,1.1,0.2,1.7,0.2c0.6,0,1.3-0.1,1.9-0.2
	c0.6-0.1,1.3-0.3,2-0.6l0,3.4C36,23.9,36,23.9,35.2,24L35.2,24z M39.5,4c0.6-0.5,1.4-0.8,2.3-0.8c0.9,0,1.7,0.3,2.3,0.8
	C44.7,4.5,45,5.3,45,6.2c0,0.9-0.3,1.6-0.9,2.2c-0.6,0.5-1.4,0.8-2.3,0.8c-0.9,0-1.7-0.3-2.3-0.8c-0.6-0.5-0.9-1.2-0.9-2.2
	C38.5,5.3,38.8,4.5,39.5,4L39.5,4z M44.4,24.1h-5.4V10.5h5.4V24.1L44.4,24.1z"/>
</svg>
