<?xml version="1.0" encoding="utf-8"?>
<!-- Generator: Adobe Illustrator 21.0.2, SVG Export Plug-In . SVG Version: 6.00 Build 0)  -->
<svg version="1.1" id="图层_1" xmlns="http://www.w3.org/2000/svg" xmlns:xlink="http://www.w3.org/1999/xlink" x="0px" y="0px"
	 viewBox="0 0 55 55" style="enable-background:new 0 0 55 55;" xml:space="preserve">
<style type="text/css">
	.st0{fill-rule:evenodd;clip-rule:evenodd;fill:#5DC149;}
	.st1{fill-rule:evenodd;clip-rule:evenodd;fill:#FFFFFF;}
</style>

<circle xmlns="http://www.w3.org/2000/svg" cx="27.5" cy="27.5" r="27.5" fill="#5DC149"/>
<path class="st1" d="M33.9,32.6c0,0-0.2,1-0.2,1.1c-0.1,0.5-0.2,0.3-0.4,0.3c0,0-4-1.3-6.4-3.8l-1.2-1.2c0,0-3.2-3.7-3.4-6.5
	c0-0.3-0.3-0.1,0.2-0.2c0.3-0.1,1.3-0.5,1.3-0.5L19.5,14l-0.8,0.4c0,0-5.7,0.6-4.6,4.7l0.9,3c6.1,10.9,18.6,18.6,18.6,18.6l2.5,1.2
	c3.8,1.2,5.4-4.6,5.4-4.6l0.5-1.6L33.9,32.6L33.9,32.6z"/>
</svg>
