<?xml version="1.0" encoding="utf-8"?>
<!-- Generator: Adobe Illustrator 21.1.0, SVG Export Plug-In . SVG Version: 6.00 Build 0)  -->
<svg version="1.1" id="图层_1" xmlns="http://www.w3.org/2000/svg" xmlns:xlink="http://www.w3.org/1999/xlink" x="0px" y="0px"
	 viewBox="0 0 10 10" style="enable-background:new 0 0 10 10;" xml:space="preserve">
<style type="text/css">
	.st0{fill:#fff;}
</style>
<g>
	<path class="st0" d="M9,2H3C2.5,2,2,1.6,2,1v0c0-0.6,0.5-1,1-1l6,0c0.6,0,1,0.5,1,1v0C10,1.6,9.5,2,9,2z"/>
	<path class="st0" d="M8,7V1c0-0.6,0.5-1,1-1h0c0.6,0,1,0.5,1,1v6c0,0.6-0.5,1-1,1h0C8.4,8,8,7.5,8,7z"/>
	<path class="st0" d="M1.3,7.3l7-7c0.4-0.4,1-0.4,1.4,0l0,0c0.4,0.4,0.4,1,0,1.4l-7,7c-0.4,0.4-1,0.4-1.4,0l0,0
		C0.9,8.3,0.9,7.7,1.3,7.3z"/>
</g>
</svg>
