<?xml version="1.0" encoding="utf-8"?>
<!-- Generator: Adobe Illustrator 21.0.2, SVG Export Plug-In . SVG Version: 6.00 Build 0)  -->
<svg version="1.1" id="layer_1" xmlns="http://www.w3.org/2000/svg" xmlns:xlink="http://www.w3.org/1999/xlink" x="0px" y="0px"
	 viewBox="0 0 16 16" style="enable-background:new 0 0 16 16;" xml:space="preserve">
<style type="text/css">
	.st0{fill:none;enable-background:new    ;}
	.st1{fill:none;stroke:#fff;stroke-linecap:round;stroke-linejoin:round;stroke-miterlimit:10;}
</style>
<path class="st0" d="M8.9,5.5c0,0-2.8,3-3.1,3.3c-0.3,0.3-0.4,0.7-0.3,1c0.1,0.4,0.9,1.2,1.1,1.3c0.6,0.4,1,0,1.5-0.4
	c0.5-0.4,5.1-5.1,5.4-5.5s0.7-1.1,0.5-1.9c-0.1-0.5-1.3-2-2.1-2.2s-1.4,0-2.1,0.6C9.1,2.2,3.3,8.4,2.9,8.8s-0.9,1-0.9,2
	s1,3.7,3.6,4.1c1,0.1,1.7-0.4,2-0.8c0.4-0.5,4.6-4.8,4.6-4.8"/>
<path class="st1" d="M8.9,5.5c0,0-2.8,3-3.1,3.3c-0.3,0.3-0.4,0.7-0.3,1c0.1,0.4,0.9,1.2,1.1,1.3c0.6,0.4,1,0,1.5-0.4
	c0.5-0.4,5.1-5.1,5.4-5.5s0.7-1.1,0.5-1.9c-0.1-0.5-1.3-2-2.1-2.2s-1.4,0-2.1,0.6C9.1,2.2,3.3,8.4,2.9,8.8s-0.9,1-0.9,2
	s1,3.7,3.6,4.1c1,0.1,1.7-0.4,2-0.8c0.4-0.5,4.6-4.8,4.6-4.8"/>
</svg>
