<?xml version="1.0" encoding="utf-8"?>
<!-- Generator: Adobe Illustrator 21.0.2, SVG Export Plug-In . SVG Version: 6.00 Build 0)  -->
<svg version="1.1" id="图层_1" xmlns="http://www.w3.org/2000/svg" xmlns:xlink="http://www.w3.org/1999/xlink" x="0px" y="0px"
	 viewBox="0 0 16 16" style="enable-background:new 0 0 16 16;" xml:space="preserve">
<path d="M6.3,10.9c-0.4,0-0.8,0-1.2-0.1c-1.6,2.1-4,2-4,2c1.8-0.9,1.6-2.3,1.3-2.5C0.9,9.4,0,8.1,0,6.6C0,4,2.8,2,6.3,2
	s5.4,2,5.4,4.6C11.7,9.2,9.8,10.9,6.3,10.9L6.3,10.9z M13.8,11.7c-0.3,0.2-0.3,1.2,1.5,2.1c0,0-2.7,1-4.3-1.1
	c-0.4,0.1-0.8,0.2-1.2,0.2c-1.5,0-1.5-0.3-2.4-1c5.4,0,6.6-4.4,4.8-8.3C14.9,4.2,16,6.3,16,8.1C16,9.6,15.2,10.9,13.8,11.7
	L13.8,11.7z"/>
</svg>
