<?xml version="1.0" encoding="utf-8"?>
<!-- Generator: Adobe Illustrator 21.0.2, SVG Export Plug-In . SVG Version: 6.00 Build 0)  -->
<svg version="1.1" id="图层_1" xmlns="http://www.w3.org/2000/svg" xmlns:xlink="http://www.w3.org/1999/xlink" x="0px" y="0px"
	 viewBox="0 0 16 16" style="enable-background:new 0 0 16 16;" xml:space="preserve">
<path d="M6.3,3c2.7,0,4.4,1.4,4.4,3.6c0,2.1-1.6,3.3-4.4,3.3c-0.4,0-0.7,0-1.1-0.1L4.7,9.7l-0.4,0.5c-0.2,0.3-0.5,0.5-0.7,0.7
	c0-0.7-0.2-1.3-0.7-1.6C1.7,8.7,1,7.7,1,6.6C1,4.6,3.4,3,6.3,3 M13.8,5.5C14.7,6.2,15,7.2,15,8.1c0,1.1-0.6,2.1-1.7,2.8
	c-0.4,0.3-0.7,0.7-0.6,1.3c0,0.2,0,0.4,0.2,0.7c-0.4-0.2-0.7-0.4-1-0.8l-0.3-0.3c0.6-0.4,1.1-0.9,1.5-1.5
	C13.9,8.9,14.1,7.2,13.8,5.5 M6.3,2C2.8,2,0,4,0,6.6c0,1.5,0.9,2.8,2.3,3.6c0.3,0.2,0.5,1.7-1.3,2.5c0,0,0,0,0.1,0
	c0.4,0,2.5-0.1,3.9-2c0.4,0.1,0.8,0.1,1.2,0.1c3.5,0,5.4-1.7,5.4-4.3C11.7,4,9.8,2,6.3,2L6.3,2z M12.1,3.6c1.9,3.8,0.7,8.3-4.7,8.3
	c0,0,0,0-0.1,0c0.9,0.7,0.9,1,2.4,1c0.4,0,0.8-0.1,1.2-0.2c0.8,1.1,2,1.4,2.9,1.4c0.8,0,1.4-0.2,1.4-0.2c-1.8-0.9-1.9-1.9-1.5-2.1
	c1.4-0.9,2.2-2.2,2.2-3.6C16,6.3,14.9,4.2,12.1,3.6L12.1,3.6z"/>
</svg>
