<?xml version="1.0" encoding="utf-8"?>
<!-- Generator: Adobe Illustrator 21.1.0, SVG Export Plug-In . SVG Version: 6.00 Build 0)  -->
<svg version="1.1" id="图层_1" xmlns="http://www.w3.org/2000/svg" xmlns:xlink="http://www.w3.org/1999/xlink" x="0px" y="0px"
	 viewBox="0 0 10 10" style="enable-background:new 0 0 10 10;" xml:space="preserve">
<style type="text/css">
	.st0{fill:#231815;}
</style>
<g>
	<path class="st0" d="M10,9L10,9c0,0.5-0.4,1-1,1H3c-0.5,0-1-0.4-1-1l0,0c0-0.6,0.5-1,1-1h6C9.5,8,10,8.4,10,9z"/>
	<path class="st0" d="M9,2L9,2c0.5,0,1,0.4,1,1v6c0,0.5-0.4,1-1,1l0,0c-0.5,0-1-0.4-1-1V3C8,2.5,8.4,2,9,2z"/>
	<path class="st0" d="M1.3,1.3L1.3,1.3c0.4-0.4,1-0.4,1.4,0l7,7c0.4,0.4,0.4,1,0,1.4l0,0c-0.4,0.4-1,0.4-1.4,0l-7-7
		C0.9,2.3,0.9,1.7,1.3,1.3z"/>
</g>
</svg>
