<?xml version="1.0" encoding="utf-8"?>
<!-- Generator: Adobe Illustrator 21.1.0, SVG Export Plug-In . SVG Version: 6.00 Build 0)  -->
<svg version="1.1" id="layer_1" xmlns="http://www.w3.org/2000/svg" xmlns:xlink="http://www.w3.org/1999/xlink" x="0px" y="0px"
	 viewBox="0 0 16 16" style="enable-background:new 0 0 16 16;" xml:space="preserve">
<style type="text/css">
	.st0{fill-rule:evenodd;clip-rule:evenodd;fill:#ce3829;}
</style>
<path class="st0" d="M15,16H1c-0.6,0-1-0.4-1-1V1c0-0.6,0.4-1,1-1h14c0.6,0,1,0.4,1,1v14C16,15.6,15.6,16,15,16L15,16z M5.8,3.2
	c0,0-2.3,0.4-2.4,2.7c0,0-0.2,2.1,2.8,2.3c0,0-0.4,0.9,0.2,1.4c0,0-4,0-4,2.5c0,0,0.2,1.8,3.5,2c0.7,0,3.2,0,3.4-2.6
	c0-1.9-2.1-2-2.1-3c0.3-0.9,1.5-1.3,1.5-2.6c0-1.4-1-1.9-1-1.9l1.1,0l0.6-0.7L5.8,3.2L5.8,3.2z M14.5,5H13V3.5C13,3.2,12.8,3,12.5,3
	C12.2,3,12,3.2,12,3.5V5h-1.5C10.2,5,10,5.2,10,5.5C10,5.8,10.2,6,10.5,6H12v1.5C12,7.8,12.2,8,12.5,8C12.8,8,13,7.8,13,7.5V6h1.5
	C14.8,6,15,5.8,15,5.5C15,5.2,14.8,5,14.5,5L14.5,5z M6.6,7.4C6,7.6,5.3,7,5,6.1C4.7,5.3,5,4.4,5.6,4.2c0.6-0.2,1.4,0.4,1.6,1.3
	C7.5,6.4,7.2,7.2,6.6,7.4L6.6,7.4z M8,11.8c0,0.8-0.8,1.4-1.9,1.4c-1,0-2-0.6-2-1.4c0-0.8,1-1.4,2-1.4C7.2,10.4,8,11.1,8,11.8
	L8,11.8z"/>
</svg>
