<?xml version="1.0" encoding="utf-8"?>
<!-- Generator: Adobe Illustrator 21.0.2, SVG Export Plug-In . SVG Version: 6.00 Build 0)  -->
<svg version="1.1" id="图层_1" xmlns="http://www.w3.org/2000/svg" xmlns:xlink="http://www.w3.org/1999/xlink" x="0px" y="0px"
	 viewBox="0 0 16 16" style="enable-background:new 0 0 16 16;" xml:space="preserve">
<style type="text/css">
	.st0{fill-rule:evenodd;clip-rule:evenodd;}
</style>
<path class="st0" d="M0,15c0.1,0,3-0.1,3-0.1s1,0,1-0.9L5.3,14c0,0,0.6-0.2,0.9,0.3C6.4,15,6.9,15,6.9,15l6.1,0c0,0,1,0.1,1-1l2-7.9
	C16,6.1,16.1,5,15,5h-2.9c0,0-1,0-1-1c0,0,0,0.3,0-0.1S12,3.4,12,2.3c0-0.6,0-0.9,0-0.9S11.5,0,10.1,0C8.7,0,9.4,0,9.4,0
	c0,0-1.1,0.4-1.5,1.6c-0.4,1.2-2,4.5-4,4.5v0c0,0-0.1-1.1-0.8-1.1h-3"/>
</svg>
