<?xml version="1.0" encoding="utf-8"?>
<!-- Generator: Adobe Illustrator 21.1.0, SVG Export Plug-In . SVG Version: 6.00 Build 0)  -->
<svg version="1.1" id="图层_1" xmlns="http://www.w3.org/2000/svg" xmlns:xlink="http://www.w3.org/1999/xlink" x="0px" y="0px"
	 viewBox="0 0 20 20" style="enable-background:new 0 0 20 20;" xml:space="preserve">
<path d="M10,0C4.5,0,0,4.5,0,10s4.5,10,10,10s10-4.5,10-10S15.5,0,10,0z M10.3,15.3c0,0.1-0.1,0.5-0.4,0.5c-0.1,0-0.7,0-0.8,0
	c-0.2,0-0.4-0.4-0.4-0.5c0-0.2,0-0.9,0-1c0-0.2,0.2-0.4,0.4-0.4c0.1,0,0.7,0,0.8,0c0.4,0,0.4,0.3,0.4,0.4
	C10.3,14.6,10.3,15.2,10.3,15.3z M12.3,9.4c-0.5,0.7-1.6,1.1-2.1,1.2l-0.1,1.9c0,0.1-0.1,0.3-0.2,0.3c-0.2,0-0.7,0-0.8,0
	c-0.1,0-0.2-0.1-0.2-0.2s-0.1-2.4-0.1-2.5c0-0.1,0.1-0.3,0.3-0.3c1.2,0,1.5-0.4,1.7-0.5c0.3-0.2,0.7-0.9,0.8-1.6
	c0.1-0.7-0.2-1.3-0.3-1.5C11,6,10.6,5.5,9.3,5.4C9,5.4,7.7,5.6,7.5,5.9C7.4,6,7.1,6.1,7,5.9C6.8,5.6,6.9,5.4,7,5.1
	c0.7-0.6,1.6-0.9,2.6-0.9c1.3,0,2.2,0.6,2.6,1C12.6,5.6,13,6.5,13,7.3C13,8,12.7,8.8,12.3,9.4z"/>
</svg>
