<?xml version="1.0" encoding="utf-8"?>
<!-- Generator: Adobe Illustrator 21.0.0, SVG Export Plug-In . SVG Version: 6.00 Build 0)  -->
<svg version="1.1" id="图层_1" xmlns="http://www.w3.org/2000/svg" xmlns:xlink="http://www.w3.org/1999/xlink" x="0px" y="0px"
	 viewBox="0 0 16 16" style="enable-background:new 0 0 16 16;" xml:space="preserve">
<style type="text/css">
	.st0{fill-rule:evenodd;clip-rule:evenodd;fill:#DDDDDD;}
</style>
<path class="st0" d="M15.8,14.8l-1,1c-0.3,0.3-0.7,0.3-1,0l-4.8-4.7C8.2,11.5,7,12,6,12c-3.4,0-6-3-6-6.3C0,2.4,2.6,0,6,0
	c3.4,0,6.5,2.4,6.5,5.7c0,1.4-0.8,2.8-1.5,3.8l4.8,4.3C16.1,14.1,16.1,14.5,15.8,14.8L15.8,14.8z M6.3,1.9C4,1.9,2.1,3.7,2.1,6
	s1.9,4,4.2,4c2.3,0,4.2-1.8,4.2-4S8.6,1.9,6.3,1.9L6.3,1.9z"/>
</svg>
