<?xml version="1.0" encoding="utf-8"?>
<!-- Generator: Adobe Illustrator 21.1.0, SVG Export Plug-In . SVG Version: 6.00 Build 0)  -->
<svg version="1.1" id="图层_1" xmlns="http://www.w3.org/2000/svg" xmlns:xlink="http://www.w3.org/1999/xlink" x="0px" y="0px"
	 viewBox="0 0 20 20" style="enable-background:new 0 0 20 20;" xml:space="preserve">
<path d="M10,1c5,0,9,4,9,9s-4,9-9,9s-9-4-9-9S5,1,10,1 M10,0C4.5,0,0,4.5,0,10s4.5,10,10,10s10-4.5,10-10S15.5,0,10,0L10,0z"/>
<path d="M12.2,5.2c-0.4-0.4-1.3-1-2.6-1c-1,0-1.9,0.3-2.6,0.9C6.9,5.4,6.8,5.6,7,5.9c0.1,0.2,0.4,0.1,0.5,0C7.7,5.6,9,5.4,9.3,5.4
	C10.6,5.5,11,6,11.2,6.3c0.1,0.2,0.4,0.8,0.3,1.5c-0.1,0.7-0.5,1.3-0.8,1.6c-0.2,0.1-0.6,0.5-1.7,0.5c-0.2,0-0.3,0.2-0.3,0.3
	c0,0.1,0.1,2.4,0.1,2.5s0.1,0.2,0.2,0.2c0.1,0,0.6,0,0.8,0c0.1,0,0.2-0.2,0.2-0.3l0.1-1.9c0.5,0,1.6-0.5,2.1-1.2
	C12.7,8.8,13,8,13,7.3C13,6.5,12.6,5.6,12.2,5.2z M10.3,14.3c0-0.1-0.1-0.4-0.4-0.4c-0.1,0-0.7,0-0.8,0c-0.2,0-0.4,0.2-0.4,0.4
	c0,0.1,0,0.8,0,1c0,0.1,0.2,0.5,0.4,0.5c0.1,0,0.7,0,0.8,0c0.3,0,0.4-0.4,0.4-0.5C10.3,15.2,10.3,14.6,10.3,14.3z"/>
</svg>
