<?xml version="1.0" encoding="utf-8"?>
<!-- Generator: Adobe Illustrator 22.0.0, SVG Export Plug-In . SVG Version: 6.00 Build 0)  -->
<svg version="1.1" id="图层_1" xmlns="http://www.w3.org/2000/svg" xmlns:xlink="http://www.w3.org/1999/xlink" x="0px" y="0px"
	 viewBox="0 0 16 16" style="enable-background:new 0 0 16 16;" xml:space="preserve">
<style type="text/css">
	.st0{fill-rule:evenodd;clip-rule:evenodd;}
</style>
<path class="st0" d="M15.1,14.8l-1,1c-0.3,0.3-0.7,0.3-1,0l-4.6-4.6c-0.7,0.3-1.9,0.8-2.8,0.8c-3.3,0-5.8-3-5.8-6.2
	C-0.1,2.4,2.5,0,5.7,0C9,0,12,2.4,12,5.7c0,1.4-0.7,2.8-1.4,3.8l4.6,4.3C15.4,14.1,15.4,14.5,15.1,14.8L15.1,14.8z M6,1.9
	c-2.2,0-4,1.8-4,4c0,2.2,1.8,4,4,4c2.2,0,4-1.8,4-4C10,3.7,8.2,1.9,6,1.9L6,1.9z"/>
</svg>
