<?xml version="1.0" encoding="utf-8"?>
<!-- Generator: Adobe Illustrator 21.1.0, SVG Export Plug-In . SVG Version: 6.00 Build 0)  -->
<svg version="1.1" id="图层_1" xmlns="http://www.w3.org/2000/svg" xmlns:xlink="http://www.w3.org/1999/xlink" x="0px" y="0px"
	 viewBox="0 0 22 16" style="enable-background:new 0 0 22 16;" xml:space="preserve">
<path d="M13.5,6.6l-6-3.5C7.4,3,7.2,3,7,3S6.7,3,6.5,3.1C6.2,3.3,6,3.6,6,4v7c0,0.4,0.2,0.7,0.5,0.9C6.7,12,6.8,12,7,12
	s0.3,0,0.5-0.1l6-3.5C13.8,8.2,14,7.9,14,7.5S13.8,6.8,13.5,6.6z M7,11V4l6,3.5L7,11z"/>
<path d="M18.1,2.9h-1.5V1.5c0,0-0.1-1.5-1.5-1.5c0,0-12.5,0-13.7,0C0.8,0,0,0.4,0,1.5s0,13.1,0,13.1S0.2,16,1.5,16h13.7
	c0,0,1.5-0.2,1.5-1.5V13h1.5l3.8,2V1L18.1,2.9z M1,14.4L1,14.4L1,14.4L1,14.4z M21,13.4c-1.1-0.6-2.4-1.2-2.4-1.2
	c-0.1-0.1-0.3-0.1-0.4-0.1h-1.5c-0.6,0-1,0.4-1,1v1.5c0,0.3-0.4,0.4-0.6,0.5c-0.2,0-13.6,0-13.6,0C1.2,15,1,14.6,1,14.5
	c0-0.2,0-13,0-13C1,1.3,1,1,1.5,1h13.7c0.2,0,0.3,0.1,0.4,0.2c0.1,0.1,0.1,0.3,0.1,0.3c0,0.1,0,1.4,0,1.4c0,0.6,0.4,1,1,1h1.5
	c0.2,0,0.3,0,0.4-0.1c0,0,1.3-0.6,2.4-1.2C21,4.8,21,11.2,21,13.4z"/>
</svg>
