<?xml version="1.0" encoding="utf-8"?>
<!-- Generator: Adobe Illustrator 21.0.2, SVG Export Plug-In . SVG Version: 6.00 Build 0)  -->
<svg version="1.1" id="图层_1" xmlns="http://www.w3.org/2000/svg" xmlns:xlink="http://www.w3.org/1999/xlink" x="0px" y="0px"
	 viewBox="0 0 16 16" style="enable-background:new 0 0 16 16;" xml:space="preserve">
<style type="text/css">
	.st0{fill-rule:evenodd;clip-rule:evenodd;}
</style>
<path class="st0" d="M0,1c0.1,0,3,0.1,3,0.1s1,0,1,0.9L5.2,2c0,0,0.6,0.2,0.9-0.3C6.4,1.1,6.9,1,6.9,1L13,1c0,0,1-0.1,1,1l2,7.9
	c0,0,0.1,1.1-1.1,1.1H12c0,0-1,0-1,1c0,0,0-0.3,0,0.1s0.9,0.5,0.9,1.6c0,0.6,0,0.9,0,0.9S11.5,16,10.1,16c-1.4,0-0.7,0-0.7,0
	s-1.1-0.4-1.5-1.6c-0.4-1.2-2-4.5-4-4.5v0c0,0-0.1,1.1-0.8,1.1h-3"/>
</svg>
