<?xml version="1.0" encoding="utf-8"?>
<!-- Generator: Adobe Illustrator 21.1.0, SVG Export Plug-In . SVG Version: 6.00 Build 0)  -->
<svg version="1.1" id="图层_1" xmlns="http://www.w3.org/2000/svg" xmlns:xlink="http://www.w3.org/1999/xlink" x="0px" y="0px"
	 viewBox="0 0 10 10" style="enable-background:new 0 0 10 10;" xml:space="preserve">
<path d="M9.7,0.3C9.5,0.1,9.2,0,9,0H3C2.5,0,2,0.5,2,1c0,0.6,0.4,1,1,1h3.6L1.3,7.3c-0.4,0.4-0.4,1,0,1.4c0.4,0.4,1,0.4,1.4,0L8,3.4
	V7c0,0.6,0.4,1,1,1c0.5,0,1-0.4,1-1V1C10,0.8,9.9,0.5,9.7,0.3z"/>
</svg>
