<?xml version="1.0" encoding="utf-8"?>
<!-- Generator: Adobe Illustrator 21.1.0, SVG Export Plug-In . SVG Version: 6.00 Build 0)  -->
<svg version="1.1" id="图层_1" xmlns="http://www.w3.org/2000/svg" xmlns:xlink="http://www.w3.org/1999/xlink" x="0px" y="0px"
	 viewBox="0 0 16 16" style="enable-background:new 0 0 16 16;" xml:space="preserve">
<style type="text/css">
	.st0{fill:#231815;}
</style>
<path class="st0" d="M5.9,15.4c-0.1,0-0.2,0-0.3,0c-2.8-0.4-4.1-3.3-4.1-4.6c0-1.2,0.6-1.9,1-2.4c0.1-0.1,0.5-0.5,1-1.1
	C6.8,4,9,1.6,9.5,1.3c0.8-0.7,1.6-0.9,2.5-0.7c1,0.3,2.3,1.9,2.5,2.6c0.2,0.7,0,1.5-0.6,2.3c-0.4,0.5-5,5.2-5.5,5.6l-0.1,0.1
	c-0.4,0.4-1.1,0.9-2,0.3c-0.3-0.1-1.2-1-1.3-1.6C4.9,9.5,5,8.9,5.4,8.4c0.2-0.2,2.1-2.3,3.1-3.3C8.7,5,9,4.9,9.2,5.1
	c0.2,0.2,0.2,0.5,0,0.7C9.2,6,6.5,8.9,6.2,9.2C6,9.3,5.9,9.5,6,9.6c0.1,0.2,0.7,0.9,0.9,1c0.2,0.2,0.3,0.2,0.8-0.3l0.1-0.1
	c0.4-0.3,5-5,5.3-5.4c0.4-0.5,0.5-1,0.4-1.5c-0.1-0.4-1.2-1.7-1.7-1.8c-0.6-0.2-1,0-1.7,0.5C9.6,2.5,5.9,6.4,4.3,8
	c-0.6,0.6-1,1-1.1,1.1C2.9,9.5,2.5,10,2.5,10.8c0,0.9,0.9,3.3,3.2,3.6c0.7,0.1,1.3-0.3,1.5-0.6c0.4-0.5,4.2-4.4,4.6-4.8
	c0.2-0.2,0.5-0.2,0.7,0c0.2,0.2,0.2,0.5,0,0.7c-1.7,1.7-4.3,4.4-4.6,4.8C7.6,14.9,6.9,15.4,5.9,15.4z"/>
</svg>
