<?xml version="1.0" encoding="utf-8"?>
<!-- Generator: Adobe Illustrator 21.0.2, SVG Export Plug-In . SVG Version: 6.00 Build 0)  -->
<svg version="1.1" id="图层_1" xmlns="http://www.w3.org/2000/svg" xmlns:xlink="http://www.w3.org/1999/xlink" x="0px" y="0px"
	 viewBox="0 0 16 16" style="enable-background:new 0 0 16 16;" xml:space="preserve">
<style type="text/css">
	.st0{fill-rule:evenodd;clip-rule:evenodd;}
</style>
<path d="M13,4h-1V3c0,0-0.1-1-1-1c0,0-9.2,0-10,0C0.6,2,0,2.3,0,3c0,0.8,0,9,0,9s0.1,1,1,1l10,0c0,0,1-0.2,1-1v-1h1l3,2V2L13,4z
	 M15,11.1c-0.7-0.5-1.4-1-1.4-1C13.4,10.1,13.2,10,13,10h-1c-0.6,0-1,0.4-1,1c0,0,0,0.9,0,1c0,0-0.1,0-0.1,0c-0.2,0-9.8,0-9.8,0
	c0,0,0-0.1,0-0.1C1,11.7,1,3,1,3s9.9,0,10,0c0,0,0,0,0,0.1C11,3.2,11,4,11,4c0,0.6,0.4,1,1,1h1c0.2,0,0.4-0.1,0.6-0.2
	c0,0,0.7-0.5,1.4-1C15,5.9,15,9.1,15,11.1z"/>
<polygon class="st0" points="5,10 9,7.5 5,5 5,10 "/>
</svg>
