<?xml version="1.0" encoding="utf-8"?>
<!-- Generator: Adobe Illustrator 21.0.2, SVG Export Plug-In . SVG Version: 6.00 Build 0)  -->
<svg version="1.1" id="图层_1" xmlns="http://www.w3.org/2000/svg" xmlns:xlink="http://www.w3.org/1999/xlink" x="0px" y="0px"
	 viewBox="0 0 16 16" style="enable-background:new 0 0 16 16;" xml:space="preserve">
<style type="text/css">
	.st0{fill-rule:evenodd;clip-rule:evenodd;}
</style>
<path class="st0" d="M13,7.6c0,3-1.2,3.8-4.1,4.3c0,0.3,0,2,0,2h2.3c0.4,0,0.7,0,0.7,0.5c0,0.5-0.3,0.5-0.7,0.5H4.9
	C4.4,15,4,15,4,14.5C4,14,4.3,14,4.7,14H7c0,0,0-1.8,0-2c-2.8-0.5-4.1-1.6-4.1-4.6c0-0.5,0.5-0.5,0.5-0.5C4.2,6.8,4,7.3,4,7.3
	c0,2.5,1.5,3.7,4,3.7c2.5,0,4-0.9,4-3.4c0,0-0.2-0.7,0.6-0.7C13.3,6.9,13,7.6,13,7.6L13,7.6z"/>
<path d="M8,0.9c-1.7,0-3,1.5-3,3.1v3c0,1.7,1.3,3,3,3c1.7,0,3-1.3,3-3v-3C11,2.4,9.6,0.9,8,0.9z M10,7c0,1.1-0.9,2-2,2S6,8.1,6,7V4
	c0-1.1,0.9-2,2-2s2,0.9,2,2V7z"/>
</svg>
