<?xml version="1.0" standalone="no"?> 
<!DOCTYPE svg PUBLIC "-//W3C//DTD SVG 1.1//EN" "http://www.w3.org/Graphics/SVG/1.1/DTD/svg11.dtd" >
<svg xmlns="http://www.w3.org/2000/svg">
<defs>
  <font id="icons" horiz-adv-x="32">
    <font-face font-family="icons"
      units-per-em="30" ascent="30"
      descent="0" />
    <missing-glyph horiz-adv-x="0" />
    <glyph glyph-name="bubble-active"
      unicode="&#xF101;"
      horiz-adv-x="30" d=" M11.8125 9.5625C11.0625 9.5625 10.3125 9.5625 9.5625 9.75C6.5625 5.8125 2.0625 6 2.0625 6C5.4375 7.6875 5.0625 10.3125 4.5 10.6875C1.6875 12.375 0 14.8125 0 17.625C0 22.5 5.25 26.25 11.8125 26.25S21.9375 22.5 21.9375 17.625C21.9375 12.75 18.375 9.5625 11.8125 9.5625L11.8125 9.5625zM25.875 8.0625C25.3125 7.6875 25.3125 5.8125 28.6875 4.125C28.6875 4.125 23.625 2.25 20.625 6.1875C19.875 6 19.125 5.8125 18.375 5.8125C15.5625 5.8125 15.5625 6.375 13.875 7.6875C24 7.6875 26.25 15.9375 22.875 23.25C27.9375 22.125 30 18.1875 30 14.8125C30 12 28.5 9.5625 25.875 8.0625L25.875 8.0625z" />
    <glyph glyph-name="bubble-content-copy"
      unicode="&#xF102;"
      horiz-adv-x="21.543624161073822" d=" M19.0268456375839 30V25.2684563758389C19.0268456375839 19.8322147651007 17.3154362416107 14.5973154362416 13.993288590604 10.2684563758389C11.2751677852349 6.744966442953 7.6510067114094 3.9261744966443 3.5234899328859 2.1140939597315C4.3288590604027 2.1140939597315 10.8724832214765 2.1140939597315 21.5436241610738 2.1140939597315V30H19.0268456375839z" />
    <glyph glyph-name="bubble-content"
      unicode="&#xF103;"
      horiz-adv-x="17.76173285198556" d=" M16.6787003610108 30V24.9097472924188C16.6787003610108 19.0613718411552 14.8375451263538 13.4296028880866 11.2635379061372 8.7725631768953C8.3393501805054 4.9819494584838 4.4404332129964 1.9494584837545 0 0C0.8664259927798 0 6.2815884476534 0 17.7617328519856 0V30H16.6787003610108z" />
    <glyph glyph-name="bubble-content1"
      unicode="&#xF104;"
      horiz-adv-x="17.76173285198556" d=" M16.6787003610108 30V24.9097472924188C16.6787003610108 19.0613718411552 14.8375451263538 13.4296028880866 11.2635379061372 8.7725631768953C8.3393501805054 4.9819494584838 4.4404332129964 1.9494584837545 0 0C0.8664259927798 0 7.9061371841155 0 19.3862815884477 0V30H16.6787003610108z" />
    <glyph glyph-name="bubble-line-copy"
      unicode="&#xF105;"
      horiz-adv-x="21.543624161073822" d=" M3.5234899328859 2.1140939597315C7.6510067114094 3.8255033557047 11.2751677852349 6.6442953020134 13.993288590604 10.2684563758389C17.3154362416107 14.5973154362416 19.0268456375839 19.8322147651007 19.0268456375839 25.2684563758389V30H18.0201342281879V25.2684563758389C18.0201342281879 14.3959731543624 10.7718120805369 5.3355704697987 0.9060402684564 2.2147651006711C-0.4026845637584 2.013422818792 -0.2013422818792 1.1073825503356 0.9060402684564 1.1073825503356C4.5302013422819 1.1073825503356 11.6778523489933 1.1073825503356 21.5436241610738 1.1073825503356V2.1140939597315C10.8724832214765 2.1140939597315 4.3288590604027 2.1140939597315 3.5234899328859 2.1140939597315z" />
    <glyph glyph-name="bubble-line"
      unicode="&#xF106;"
      horiz-adv-x="19.75609756097561" d=" M3.6585365853659 1.0452961672474C7.9442508710801 2.8222996515679 11.7073170731707 5.7491289198606 14.5296167247387 9.5121951219512C17.9790940766551 14.006968641115 19.7560975609756 19.4425087108014 19.7560975609756 25.0871080139373V30H18.7108013937282V25.0871080139373C18.7108013937282 13.7979094076655 11.184668989547 4.390243902439 0.9407665505226 1.1498257839721C-0.418118466899 0.9407665505226 -0.2090592334495 0 0.9407665505226 0C4.7038327526132 0 9.5121951219512 0 19.7560975609756 0V1.0452961672474C8.6759581881533 1.0452961672474 4.4947735191638 1.0452961672474 3.6585365853659 1.0452961672474z" />
    <glyph glyph-name="bubble-line1"
      unicode="&#xF107;"
      horiz-adv-x="19.75609756097561" d=" M3.6585365853659 1.0452961672474C7.9442508710801 2.8222996515679 11.7073170731707 5.7491289198606 14.5296167247387 9.5121951219512C17.9790940766551 14.006968641115 19.7560975609756 19.4425087108014 19.7560975609756 25.0871080139373V30H18.7108013937282V25.0871080139373C18.7108013937282 13.7979094076655 11.184668989547 4.390243902439 0.9407665505226 1.1498257839721C-0.418118466899 0.9407665505226 -0.2090592334495 0 0.9407665505226 0C4.7038327526132 0 12.1254355400697 0 22.3693379790941 0V1.0452961672474C11.2891986062718 1.0452961672474 4.4947735191638 1.0452961672474 3.6585365853659 1.0452961672474z" />
    <glyph glyph-name="bubble"
      unicode="&#xF108;"
      horiz-adv-x="30" d=" M11.8125 24.375C16.875 24.375 20.0625 21.75 20.0625 17.625C20.0625 13.6875 17.0625 11.4375 11.8125 11.4375C11.0625 11.4375 10.5 11.4375 9.75 11.625L8.8125 11.8125L8.0625 10.875C7.6875 10.3125 7.125 9.9375 6.75 9.5625C6.75 10.875 6.375 12 5.4375 12.5625C3.1875 13.6875 1.875 15.5625 1.875 17.625C1.875 21.375 6.375 24.375 11.8125 24.375M25.875 19.6875C27.5625 18.375 28.125 16.5 28.125 14.8125C28.125 12.75 27 10.875 24.9375 9.5625C24.1875 9 23.625 8.25 23.8125 7.125C23.8125 6.75 23.8125 6.375 24.1875 5.8125C23.4375 6.1875 22.875 6.5625 22.3125 7.3125L21.75 7.875C22.875 8.625 23.8125 9.5625 24.5625 10.6875C26.0625 13.3125 26.4375 16.5 25.875 19.6875M11.8125 26.25C5.25 26.25 0 22.5 0 17.625C0 14.8125 1.6875 12.375 4.3125 10.875C4.875 10.5 5.25 7.6875 1.875 6.1875C1.875 6.1875 1.875 6.1875 2.0625 6.1875C2.8125 6.1875 6.75 6.375 9.375 9.9375C10.125 9.75 10.875 9.75 11.625 9.75C18.1875 9.75 21.75 12.9375 21.75 17.8125C21.9375 22.5 18.375 26.25 11.8125 26.25L11.8125 26.25zM22.6875 23.25C26.25 16.125 24 7.6875 13.875 7.6875C13.875 7.6875 13.875 7.6875 13.6875 7.6875C15.375 6.375 15.375 5.8125 18.1875 5.8125C18.9375 5.8125 19.6875 6 20.4375 6.1875C21.9375 4.125 24.1875 3.5625 25.875 3.5625C27.375 3.5625 28.5 3.9375 28.5 3.9375C25.125 5.625 24.9375 7.5 25.6875 7.875C28.3125 9.5625 29.8125 12 29.8125 14.625C30 18.1875 27.9375 22.125 22.6875 23.25L22.6875 23.25z" />
    <glyph glyph-name="close"
      unicode="&#xF109;"
      horiz-adv-x="30" d=" M20.7 16.5L29.1 24.9C30.3 26.1 30.3 27.9 29.1 29.1C27.9 30.3 26.1 30.3 24.9 29.1L16.5 20.7L8.1 29.1C6.9 30.3 5.1 30.3 3.9 29.1C2.7 27.9 2.7 26.1 3.9 24.9L12.3 16.5L3.9 8.1C2.7 6.9 2.7 5.1 3.9 3.9C5.1 2.7 6.9 2.7 8.1 3.9L16.5 12.3L24.9 3.9C26.1 2.7 27.9 2.7 29.1 3.9C30.3 5.1 30.3 6.9 29.1 8.1L20.7 16.5z" />
    <glyph glyph-name="drag"
      unicode="&#xF10A;"
      horiz-adv-x="36.92307692307692" d=" M33.4615384615385 0H10.5C8.6538461538462 0 7.0384615384615 1.5 7.0384615384615 3.4615384615385V7.8461538461539C7.0384615384615 9.1153846153846 8.7692307692308 9.1153846153846 8.7692307692308 9.1153846153846C9.9230769230769 9.1153846153846 10.5 7.8461538461539 10.5 7.8461538461539V4.6153846153846C10.5 3.9230769230769 10.9615384615385 3.4615384615385 11.6538461538462 3.4615384615385H32.3076923076923C32.8846153846154 3.4615384615385 33.4615384615385 3.9230769230769 33.4615384615385 4.6153846153846V25.3846153846154C33.4615384615385 26.0769230769231 33 26.5384615384615 32.3076923076923 26.5384615384615H25.1538461538462C25.1538461538462 26.5384615384615 23.7692307692308 26.7692307692308 23.7692307692308 28.2692307692308C23.7692307692308 28.2692307692308 24.1153846153846 30 25.1538461538462 30H33.4615384615385C35.3076923076923 30 36.9230769230769 28.5 36.9230769230769 26.5384615384615V3.4615384615385C36.9230769230769 1.5 35.4230769230769 0 33.4615384615385 0L33.4615384615385 0zM11.3076923076923 12.9230769230769L15 17.3076923076923C14.0769230769231 19.8461538461538 12.6923076923077 24.9230769230769 7.3846153846154 24.9230769230769C2.3076923076923 24.8076923076923 0.6923076923077 22.1538461538462 0.2307692307692 20.7692307692308C1.2692307692308 24.5769230769231 2.8846153846154 27.3461538461538 5.7692307692308 28.1538461538462C10.7307692307692 29.5384615384615 15.2307692307692 28.7307692307692 19.5 22.7307692307692L22.5 26.3076923076923C23.4230769230769 21 24.4615384615385 12.5769230769231 24.4615384615385 12.5769230769231S11.8846153846154 12.4615384615385 11.3076923076923 12.9230769230769L11.3076923076923 12.9230769230769zM0.2307692307692 20.7692307692308C0.1153846153846 20.5384615384615 0.1153846153846 20.3076923076923 0 20.0769230769231C0 20.0769230769231 0 20.3076923076923 0.2307692307692 20.7692307692308L0.2307692307692 20.7692307692308z" />
    <glyph glyph-name="email"
      unicode="&#xF10B;"
      horiz-adv-x="30" d=" M44.1 24C44.4 24 44.7 23.7 44.7 23.7C45.3 23.1 45.3 22.2 44.7 21.6L24.3 0.6C24 0.3 23.4 0.3 23.1 0.3C22.8 0.3 22.2 0.3 22.2 0.6L9.3 13.2C8.7 13.8 8.4 15 9 15.3C9.6 15.9 10.5 15.9 11.1 15.3L22.8 3.6L42.6 23.4C42.9 23.7 43.2 24 43.8 24C43.8 24 43.8 24 43.5 24H4.8C2.1 24 0 21.9 0 19.5V-7.2C0 -9.9 2.1 -12 4.8 -12H43.2C45.9 -12 48 -9.9 48 -7.5V19.2C48 21.6 46.2 23.7 44.1 24z M46.5 8.4V-7.8C46.5 -9.3 45.3 -10.8 43.5 -10.8H4.5C3 -10.8 1.5 -9.6 1.5 -7.8V19.5C1.5 21 2.7 22.5 4.5 22.5H43.8L23.1 1.8L10.2 14.4" />
    <glyph glyph-name="embedded"
      unicode="&#xF10C;"
      horiz-adv-x="30" d=" M30 3L30 3C30 1.5 28.8 0 27 0H9C7.5 0 6 1.2 6 3L6 3C6 4.8 7.5 6 9 6H27C28.5 6 30 4.8 30 3z M27 24L27 24C28.5 24 30 22.8 30 21V3C30 1.5 28.8 0 27 0L27 0C25.5 0 24 1.2 24 3V21C24 22.5 25.2 24 27 24z M3.9 26.1L3.9 26.1C5.1 27.3 6.9 27.3 8.1 26.1L29.1 5.1C30.3 3.9 30.3 2.1 29.1 0.9L29.1 0.9C27.9 -0.3 26.1 -0.3 24.9 0.9L3.9 21.9C2.7 23.1 2.7 24.9 3.9 26.1z" />
    <glyph glyph-name="facebook"
      unicode="&#xF10D;"
      horiz-adv-x="30" d=" M26.25 0H3.75C1.6875 0 0 1.6875 0 3.75V26.25C0 28.3125 1.6875 30 3.75 30H26.25C28.3125 30 30 28.3125 30 26.25V3.75C30 1.6875 28.3125 0 26.25 0L26.25 0zM10.6875 22.6875C9.375 22.6875 8.625 22.5 7.6875 22.125C6.75 21.75 6.375 21 6 20.25C5.8125 19.5 5.625 18.75 5.625 17.4375V16.875H3.75L3.75 13.125H5.625V1.875H9.9375V13.125H12.9375L13.6875 16.875H9.5625C9.5625 16.875 9.1875 18.375 9.75 18.9375C10.125 19.3125 10.6875 19.5 11.25 19.5C12 19.5 12.5625 19.125 13.3125 18.75L14.25 21.9375C12.9375 22.3125 12.1875 22.6875 10.6875 22.6875L10.6875 22.6875z" />
    <glyph glyph-name="googleplus"
      unicode="&#xF10E;"
      horiz-adv-x="30" d=" M28.125 0H1.875C0.75 0 0 0.75 0 1.875V28.125C0 29.25 0.75 30 1.875 30H28.125C29.25 30 30 29.25 30 28.125V1.875C30 0.75 29.25 0 28.125 0L28.125 0zM10.875 24C10.875 24 6.5625 23.25 6.375 18.9375C6.375 18.9375 6 15 11.625 14.625C11.625 14.625 10.875 12.9375 12 12C12 12 4.5 12 4.5 7.3125C4.5 7.3125 4.875 3.9375 11.0625 3.5625C12.375 3.5625 17.0625 3.5625 17.4375 8.4375C17.4375 12 13.5 12.1875 13.5 14.0625C14.0625 15.75 16.3125 16.5 16.3125 18.9375C16.3125 21.5625 14.4375 22.5 14.4375 22.5L16.5 22.5L17.625 23.8125L10.875 24L10.875 24zM27.1875 20.625H24.375V23.4375C24.375 24 24 24.375 23.4375 24.375C22.875 24.375 22.5 24 22.5 23.4375V20.625H19.6875C19.125 20.625 18.75 20.25 18.75 19.6875C18.75 19.125 19.125 18.75 19.6875 18.75H22.5V15.9375C22.5 15.375 22.875 15 23.4375 15C24 15 24.375 15.375 24.375 15.9375V18.75H27.1875C27.75 18.75 28.125 19.125 28.125 19.6875C28.125 20.25 27.75 20.625 27.1875 20.625L27.1875 20.625zM12.375 16.125C11.25 15.75 9.9375 16.875 9.375 18.5625C8.8125 20.0625 9.375 21.75 10.5 22.125C11.625 22.5 13.125 21.375 13.5 19.6875C14.0625 18 13.5 16.5 12.375 16.125L12.375 16.125zM15 7.875C15 6.375 13.5 5.25 11.4375 5.25C9.5625 5.25 7.6875 6.375 7.6875 7.875C7.6875 9.375 9.5625 10.5 11.4375 10.5C13.5 10.5 15 9.1875 15 7.875L15 7.875z" />
    <glyph glyph-name="helpful"
      unicode="&#xF10F;"
      horiz-adv-x="30" d=" M0 1.875C0.1875 1.875 5.625 2.0625 5.625 2.0625S7.5 2.0625 7.5 3.75L9.9375 3.75C9.9375 3.75 11.0625 4.125 11.625 3.1875C12 1.875 12.9375 1.875 12.9375 1.875L24.375 1.875C24.375 1.875 26.25 1.6875 26.25 3.75L30 18.5625C30 18.5625 30.1875 20.625 28.125 20.625H22.6875C22.6875 20.625 20.8125 20.625 20.8125 22.5C20.8125 22.5 20.8125 21.9375 20.8125 22.6875S22.5 23.625 22.5 25.6875C22.5 26.8125 22.5 27.375 22.5 27.375S21.5625 30 18.9375 30C16.3125 30 17.625 30 17.625 30C17.625 30 15.5625 29.25 14.8125 27C14.0625 24.75 11.0625 18.5625 7.3125 18.5625V18.5625C7.3125 18.5625 7.125 20.625 5.8125 20.625H0.1875" />
    <glyph glyph-name="input-send"
      unicode="&#xF110;"
      horiz-adv-x="36" d=" M36 30L0 14.85L8.55 10.5L24.9 21L11.1 7.8L11.1 1.2L16.8 4.2L24.9 0L36 30z" />
    <glyph glyph-name="kb-active"
      unicode="&#xF111;"
      horiz-adv-x="30" d=" M15 30C6.75 30 0 23.25 0 15S6.75 0 15 0S30 6.75 30 15S23.25 30 15 30zM15.45 7.05C15.45 6.9 15.3 6.3 14.85 6.3C14.7 6.3 13.8 6.3 13.65 6.3C13.35 6.3 13.05 6.9 13.05 7.05C13.05 7.35 13.05 8.4 13.05 8.55C13.05 8.85 13.35 9.15 13.65 9.15C13.8 9.15 14.7 9.15 14.85 9.15C15.45 9.15 15.45 8.7 15.45 8.55C15.45 8.1 15.45 7.2 15.45 7.05zM18.45 15.9C17.7 14.85 16.05 14.25 15.3 14.1L15.15 11.25C15.15 11.1 15 10.8 14.85 10.8C14.55 10.8 13.8 10.8 13.65 10.8C13.5 10.8 13.35 10.95 13.35 11.1S13.2 14.7 13.2 14.85C13.2 15 13.35 15.3 13.65 15.3C15.45 15.3 15.9 15.9 16.2 16.05C16.65 16.35 17.25 17.4 17.4 18.45C17.55 19.5 17.1 20.4 16.95 20.7C16.5 21 15.9 21.75 13.95 21.9C13.5 21.9 11.55 21.6 11.25 21.15C11.1 21 10.65 20.85 10.5 21.15C10.2 21.6 10.35 21.9 10.5 22.35C11.55 23.25 12.9 23.7 14.4 23.7C16.35 23.7 17.7 22.8 18.3 22.2C18.9 21.6 19.5 20.25 19.5 19.05C19.5 18 19.05 16.8 18.45 15.9z" />
    <glyph glyph-name="kb-search"
      unicode="&#xF112;"
      horiz-adv-x="30" d=" M29.625 2.25L27.75 0.375C27.1875 -0.1875 26.4375 -0.1875 25.875 0.375L16.875 9.1875C15.375 8.4375 13.125 7.5 11.25 7.5C4.875 7.5 0 13.125 0 19.3125C0 25.5 4.875 30 11.25 30C17.625 30 23.4375 25.5 23.4375 19.3125C23.4375 16.6875 21.9375 14.0625 20.625 12.1875L29.625 4.125C30.1875 3.5625 30.1875 2.8125 29.625 2.25L29.625 2.25zM11.8125 26.4375C7.5 26.4375 3.9375 23.0625 3.9375 18.75S7.5 11.25 11.8125 11.25C16.125 11.25 19.6875 14.625 19.6875 18.75S16.125 26.4375 11.8125 26.4375L11.8125 26.4375z" />
    <glyph glyph-name="kb"
      unicode="&#xF113;"
      horiz-adv-x="30" d=" M15 28.5C22.5 28.5 28.5 22.5 28.5 15S22.5 1.5 15 1.5S1.5 7.5 1.5 15S7.5 28.5 15 28.5M15 30C6.75 30 0 23.25 0 15S6.75 0 15 0S30 6.75 30 15S23.25 30 15 30L15 30z M18.3 22.2C17.7 22.8 16.35 23.7 14.4 23.7C12.9 23.7 11.55 23.25 10.5 22.35C10.35 21.9 10.2 21.6 10.5 21.15C10.65 20.85 11.1 21 11.25 21.15C11.55 21.6 13.5 21.9 13.95 21.9C15.9 21.75 16.5 21 16.8 20.55C16.95 20.25 17.4 19.35 17.25 18.3C17.1 17.25 16.5 16.35 16.05 15.9C15.75 15.75 15.15 15.15 13.5 15.15C13.2 15.15 13.05 14.85 13.05 14.7C13.05 14.55 13.2 11.1 13.2 10.95S13.35 10.65 13.5 10.65C13.65 10.65 14.4 10.65 14.7 10.65C14.85 10.65 15 10.95 15 11.1L15.15 13.95C15.9 13.95 17.55 14.7 18.3 15.75C19.05 16.8 19.5 18 19.5 19.05C19.5 20.25 18.9 21.6 18.3 22.2zM15.45 8.55C15.45 8.7 15.3 9.15 14.85 9.15C14.7 9.15 13.8 9.15 13.65 9.15C13.35 9.15 13.05 8.85 13.05 8.55C13.05 8.4 13.05 7.35 13.05 7.05C13.05 6.9 13.35 6.3 13.65 6.3C13.8 6.3 14.7 6.3 14.85 6.3C15.3 6.3 15.45 6.9 15.45 7.05C15.45 7.2 15.45 8.1 15.45 8.55z" />
    <glyph glyph-name="kbSearch-active"
      unicode="&#xF114;"
      horiz-adv-x="30" d=" M28.3125 2.25L26.4375 0.375C25.875 -0.1875 25.125 -0.1875 24.5625 0.375L15.9375 9C14.625 8.4375 12.375 7.5 10.6875 7.5C4.5 7.5 -0.1875 13.125 -0.1875 19.125C-0.1875 25.5 4.6875 30 10.6875 30C16.875 30 22.5 25.5 22.5 19.3125C22.5 16.6875 21.1875 14.0625 19.875 12.1875L28.5 4.125C28.875 3.5625 28.875 2.8125 28.3125 2.25L28.3125 2.25zM11.25 26.4375C7.125 26.4375 3.75 23.0625 3.75 18.9375C3.75 14.8125 7.125 11.4375 11.25 11.4375C15.375 11.4375 18.75 14.8125 18.75 18.9375C18.75 23.0625 15.375 26.4375 11.25 26.4375L11.25 26.4375z" />
    <glyph glyph-name="kbSearch"
      unicode="&#xF115;"
      horiz-adv-x="30" d=" M28.3125 2.25L26.4375 0.375C25.875 -0.1875 25.125 -0.1875 24.5625 0.375L15.9375 9C14.625 8.4375 12.375 7.5 10.6875 7.5C4.5 7.5 -0.1875 13.125 -0.1875 19.125C-0.1875 25.5 4.6875 30 10.6875 30C16.875 30 22.5 25.5 22.5 19.3125C22.5 16.6875 21.1875 14.0625 19.875 12.1875L28.5 4.125C28.875 3.5625 28.875 2.8125 28.3125 2.25L28.3125 2.25zM11.25 26.4375C7.125 26.4375 3.75 23.0625 3.75 18.9375C3.75 14.8125 7.125 11.4375 11.25 11.4375C15.375 11.4375 18.75 14.8125 18.75 18.9375C18.75 23.0625 15.375 26.4375 11.25 26.4375L11.25 26.4375z" />
    <glyph glyph-name="media-active"
      unicode="&#xF116;"
      horiz-adv-x="41.25" d=" M33.9375 24.5625H31.125V27.1875C31.125 27.1875 30.9375 30 28.3125 30C28.3125 30 4.875 30 2.625 30C1.5 30 0 29.25 0 27.1875S0 2.625 0 2.625S0.375 0 2.8125 0H28.5C28.5 0 31.3125 0.375 31.3125 2.8125V5.625H34.125L41.25 1.875V28.125L33.9375 24.5625zM13.125 9.375V22.5L24.375 15.9375L13.125 9.375z" />
    <glyph glyph-name="media"
      unicode="&#xF117;"
      horiz-adv-x="41.25" d=" M25.3125 17.625L14.0625 24.1875C13.875 24.375 13.5 24.375 13.125 24.375S12.5625 24.375 12.1875 24.1875C11.625 23.8125 11.25 23.25 11.25 22.5V9.375C11.25 8.625 11.625 8.0625 12.1875 7.6875C12.5625 7.5 12.75 7.5 13.125 7.5S13.6875 7.5 14.0625 7.6875L25.3125 14.25C25.875 14.625 26.25 15.1875 26.25 15.9375S25.875 17.25 25.3125 17.625zM13.125 9.375V22.5L24.375 15.9375L13.125 9.375z M33.9375 24.5625H31.125V27.1875C31.125 27.1875 30.9375 30 28.3125 30C28.3125 30 4.875 30 2.625 30C1.5 30 0 29.25 0 27.1875S0 2.625 0 2.625S0.375 0 2.8125 0H28.5C28.5 0 31.3125 0.375 31.3125 2.8125V5.625H34.125L41.25 1.875V28.125L33.9375 24.5625zM1.875 3L1.875 3L1.875 3L1.875 3zM39.375 4.875C37.3125 6 34.875 7.125 34.875 7.125C34.6875 7.3125 34.3125 7.3125 34.125 7.3125H31.3125C30.1875 7.3125 29.4375 6.5625 29.4375 5.4375V2.625C29.4375 2.0625 28.6875 1.875 28.3125 1.6875C27.9375 1.6875 2.8125 1.6875 2.8125 1.6875C2.25 1.875 1.875 2.625 1.875 2.8125C1.875 3.1875 1.875 27.1875 1.875 27.1875C1.875 27.5625 1.875 28.125 2.8125 28.125H28.5C28.875 28.125 29.0625 27.9375 29.25 27.75C29.4375 27.5625 29.4375 27.1875 29.4375 27.1875C29.4375 27 29.4375 24.5625 29.4375 24.5625C29.4375 23.4375 30.1875 22.6875 31.3125 22.6875H34.125C34.5 22.6875 34.6875 22.6875 34.875 22.875C34.875 22.875 37.3125 24 39.375 25.125C39.375 21 39.375 9 39.375 4.875z" />
    <glyph glyph-name="minimize"
      unicode="&#xF118;"
      horiz-adv-x="30" d=" M27 6H3C1.2 6 0 7.2 0 9S1.2 12 3 12H27C28.8 12 30 10.8 30 9S28.8 6 27 6L27 6z" />
    <glyph glyph-name="not-helpful"
      unicode="&#xF119;"
      horiz-adv-x="30" d=" M0 28.125C0.1875 28.125 5.625 27.9375 5.625 27.9375S7.5 27.9375 7.5 26.25L9.75 26.25C9.75 26.25 10.875 25.875 11.4375 26.8125C12 27.9375 12.9375 28.125 12.9375 28.125L24.375 28.125C24.375 28.125 26.25 28.3125 26.25 26.25L30 11.4375C30 11.4375 30.1875 9.375 27.9375 9.375H22.5C22.5 9.375 20.625 9.375 20.625 7.5C20.625 7.5 20.625 8.0625 20.625 7.3125S22.3125 6.375 22.3125 4.3125C22.3125 3.1875 22.3125 2.625 22.3125 2.625S21.5625 0 18.9375 0C16.3125 0 17.625 0 17.625 0S15.5625 0.75 14.8125 3C14.0625 5.25 11.0625 11.4375 7.3125 11.4375V11.4375C7.3125 11.4375 7.125 9.375 5.8125 9.375H0.1875" />
    <glyph glyph-name="plus"
      unicode="&#xF11A;"
      horiz-adv-x="30" d=" M26.85 18H17.85V26.85C18 28.65 16.65 30 15 30S12 28.65 12 26.85V18H3C1.35 18 0 16.65 0 15S1.35 12 3.15 12H12.15V3C12.15 1.35 13.5 -0.15 15.15 -0.15S18.15 1.2 18.15 3V12H27.15C28.8 12 30.3 13.35 30.3 15S28.65 18 26.85 18z" />
    <glyph glyph-name="popup"
      unicode="&#xF11B;"
      horiz-adv-x="30" d=" M29.1 29.1C28.5 29.7 27.6 30 27 30H9C7.5 30 6 28.5 6 27C6 25.2 7.2 24 9 24H19.8L3.9 8.1C2.7 6.9 2.7 5.1 3.9 3.9C5.1 2.7 6.9 2.7 8.1 3.9L24 19.8V9C24 7.2 25.2 6 27 6C28.5 6 30 7.2 30 9V27C30 27.6 29.7 28.5 29.1 29.1z" />
    <glyph glyph-name="rating-full"
      unicode="&#xF11C;"
      horiz-adv-x="30" d=" M15 30L19.6 20.1L30 18.5L22.5 10.9L24.3 0L15 5.1L5.7 0L7.5 10.9L0 18.5L10.4 20.1L15 30z" />
    <glyph glyph-name="rating-half"
      unicode="&#xF11D;"
      horiz-adv-x="15" d=" M10.4 20.1L0 18.5L7.5 10.9L5.7 0L15 5.1L15 30z" />
    <glyph glyph-name="sendfile"
      unicode="&#xF11E;"
      horiz-adv-x="30" d=" M11.0625 1.125C10.875 1.125 10.6875 1.125 10.5 1.125C5.25 1.875 2.8125 7.3125 2.8125 9.75C2.8125 12 3.9375 13.3125 4.6875 14.25C4.875 14.4375 5.625 15.1875 6.5625 16.3125C12.75 22.5 16.875 27 17.8125 27.5625C19.3125 28.875 20.8125 29.25 22.5 28.875C24.375 28.3125 26.8125 25.3125 27.1875 24C27.5625 22.6875 27.1875 21.1875 26.0625 19.6875C25.3125 18.75 16.6875 9.9375 15.75 9.1875L15.5625 9C14.8125 8.25 13.5 7.3125 11.8125 8.4375C11.25 8.625 9.5625 10.3125 9.375 11.4375C9.1875 12.1875 9.375 13.3125 10.125 14.25C10.5 14.625 14.0625 18.5625 15.9375 20.4375C16.3125 20.625 16.875 20.8125 17.25 20.4375C17.625 20.0625 17.625 19.5 17.25 19.125C17.25 18.75 12.1875 13.3125 11.625 12.75C11.25 12.5625 11.0625 12.1875 11.25 12C11.4375 11.625 12.5625 10.3125 12.9375 10.125C13.3125 9.75 13.5 9.75 14.4375 10.6875L14.625 10.875C15.375 11.4375 24 20.25 24.5625 21C25.3125 21.9375 25.5 22.875 25.3125 23.8125C25.125 24.5625 23.0625 27 22.125 27.1875C21 27.5625 20.25 27.1875 18.9375 26.25C18 25.3125 11.0625 18 8.0625 15C6.9375 13.875 6.1875 13.125 6 12.9375C5.4375 12.1875 4.6875 11.25 4.6875 9.75C4.6875 8.0625 6.375 3.5625 10.6875 3C12 2.8125 13.125 3.5625 13.5 4.125C14.25 5.0625 21.375 12.375 22.125 13.125C22.5 13.5 23.0625 13.5 23.4375 13.125C23.8125 12.75 23.8125 12.1875 23.4375 11.8125C20.25 8.625 15.375 3.5625 14.8125 2.8125C14.25 2.0625 12.9375 1.125 11.0625 1.125z" />
    <glyph glyph-name="video"
      unicode="&#xF11F;"
      horiz-adv-x="30" d=" M24.375 22.5H22.5V24.375C22.5 24.375 22.3125 26.25 20.625 26.25C20.625 26.25 3.375 26.25 1.875 26.25C1.125 26.25 0 25.6875 0 24.375C0 22.875 0 7.5 0 7.5S0.1875 5.625 1.875 5.625L20.625 5.625C20.625 5.625 22.5 6 22.5 7.5V9.375H24.375L30 5.625V26.25L24.375 22.5zM28.125 9.1875C26.8125 10.125 25.5 11.0625 25.5 11.0625C25.125 11.0625 24.75 11.25 24.375 11.25H22.5C21.375 11.25 20.625 10.5 20.625 9.375C20.625 9.375 20.625 7.6875 20.625 7.5C20.625 7.5 20.4375 7.5 20.4375 7.5C20.0625 7.5 2.0625 7.5 2.0625 7.5C2.0625 7.5 2.0625 7.6875 2.0625 7.6875C1.875 8.0625 1.875 24.375 1.875 24.375S20.4375 24.375 20.625 24.375C20.625 24.375 20.625 24.375 20.625 24.1875C20.625 24 20.625 22.5 20.625 22.5C20.625 21.375 21.375 20.625 22.5 20.625H24.375C24.75 20.625 25.125 20.8125 25.5 21C25.5 21 26.8125 21.9375 28.125 22.875C28.125 18.9375 28.125 12.9375 28.125 9.1875z M9.375 11.25L16.875 15.9375L9.375 20.625L9.375 11.25z" />
    <glyph glyph-name="voice-active"
      unicode="&#xF120;"
      horiz-adv-x="30" d=" M24.375 15.75C24.375 10.125 22.125 8.625 16.6875 7.6875C16.6875 7.125 16.6875 3.9375 16.6875 3.9375H21C21.75 3.9375 22.3125 3.9375 22.3125 3C22.3125 2.0625 21.75 2.0625 21 2.0625H9.1875C8.25 1.875 7.5 1.875 7.5 2.8125C7.5 3.75 8.0625 3.75 8.8125 3.75H13.125C13.125 3.75 13.125 7.125 13.125 7.5C7.875 8.4375 5.4375 10.5 5.4375 16.125C5.4375 17.0625 6.375 17.0625 6.375 17.0625C7.875 17.25 7.5 16.3125 7.5 16.3125C7.5 11.625 10.3125 9.375 15 9.375C19.6875 9.375 22.5 11.0625 22.5 15.75C22.5 15.75 22.125 17.0625 23.625 17.0625C24.9375 17.0625 24.375 15.75 24.375 15.75L24.375 15.75zM15 11.0625C11.8125 11.0625 9.375 13.5 9.375 16.6875V22.3125C9.375 25.5 11.8125 28.125 15 28.125S20.625 25.3125 20.625 22.3125V16.6875C20.625 13.6875 18 11.0625 15 11.0625L15 11.0625z" />
    <glyph glyph-name="voice"
      unicode="&#xF121;"
      horiz-adv-x="30" d=" M24.375 15.75C24.375 10.125 22.125 8.625 16.6875 7.6875C16.6875 7.125 16.6875 3.9375 16.6875 3.9375H21C21.75 3.9375 22.3125 3.9375 22.3125 3C22.3125 2.0625 21.75 2.0625 21 2.0625H9.1875C8.25 1.875 7.5 1.875 7.5 2.8125C7.5 3.75 8.0625 3.75 8.8125 3.75H13.125C13.125 3.75 13.125 7.125 13.125 7.5C7.875 8.4375 5.4375 10.5 5.4375 16.125C5.4375 17.0625 6.375 17.0625 6.375 17.0625C7.875 17.25 7.5 16.3125 7.5 16.3125C7.5 11.625 10.3125 9.375 15 9.375C19.6875 9.375 22.5 11.0625 22.5 15.75C22.5 15.75 22.125 17.0625 23.625 17.0625C24.9375 17.0625 24.375 15.75 24.375 15.75L24.375 15.75z M15 28.3125C11.8125 28.3125 9.375 25.5 9.375 22.5V16.875C9.375 13.6875 11.8125 11.25 15 11.25C18.1875 11.25 20.625 13.6875 20.625 16.875V22.5C20.625 25.5 18 28.3125 15 28.3125zM18.75 16.875C18.75 14.8125 17.0625 13.125 15 13.125S11.25 14.8125 11.25 16.875V22.5C11.25 24.5625 12.9375 26.25 15 26.25S18.75 24.5625 18.75 22.5V16.875z" />
  </font>
</defs>
</svg>
